<?xml version="1.0" encoding="UTF-8" standalone="no"?>
<!-- Created with Inkscape (http://www.inkscape.org/) -->
<svg
   xmlns:dc="http://purl.org/dc/elements/1.1/"
   xmlns:cc="http://web.resource.org/cc/"
   xmlns:rdf="http://www.w3.org/1999/02/22-rdf-syntax-ns#"
   xmlns:svg="http://www.w3.org/2000/svg"
   xmlns="http://www.w3.org/2000/svg"
   xmlns:sodipodi="http://inkscape.sourceforge.net/DTD/sodipodi-0.dtd"
   xmlns:inkscape="http://www.inkscape.org/namespaces/inkscape"
   id="svg2"
   sodipodi:version="0.32"
   inkscape:version="0.43"
   width="400"
   height="300"
   version="1.0"
   sodipodi:docbase="D:\obrazki\svg\inne\flagi pirackie"
   sodipodi:docname="Richard_Worley_Flag.svg">
  <metadata
     id="metadata7">
    <rdf:RDF>
      <cc:Work
         rdf:about="">
        <dc:format>image/svg+xml</dc:format>
        <dc:type
           rdf:resource="http://purl.org/dc/dcmitype/StillImage" />
      </cc:Work>
    </rdf:RDF>
  </metadata>
  <defs
     id="defs5" />
  <sodipodi:namedview
     inkscape:window-height="712"
     inkscape:window-width="1024"
     inkscape:pageshadow="2"
     inkscape:pageopacity="0.0"
     borderopacity="1.0"
     bordercolor="#666666"
     pagecolor="#ffffff"
     id="base"
     inkscape:zoom="1"
     inkscape:cx="252.08126"
     inkscape:cy="125.80985"
     inkscape:window-x="-4"
     inkscape:window-y="-4"
     inkscape:current-layer="layer1"
     showguides="true"
     inkscape:guide-bbox="true" />
  <g
     inkscape:groupmode="layer"
     id="layer3"
     inkscape:label="r"
     style="display:inline" />
  <g
     inkscape:groupmode="layer"
     id="layer1"
     inkscape:label="a"
     style="display:inline"
     sodipodi:insensitive="true">
    <rect
       style="opacity:1;color:#000000;fill:#000000;fill-opacity:1;fill-rule:evenodd;stroke:none;stroke-width:1;stroke-linecap:butt;stroke-linejoin:miter;marker:none;marker-start:none;marker-mid:none;marker-end:none;stroke-miterlimit:4;stroke-dasharray:none;stroke-dashoffset:0;stroke-opacity:1;visibility:visible;display:inline;overflow:visible"
       id="rect1306"
       width="398.99994"
       height="299.00009"
       x="0.50003052"
       y="0.49995422" />
    <g
       style="display:inline"
       id="g4870"
       transform="matrix(-1,0,0,1,399.224,0)">
      <path
         sodipodi:nodetypes="ccccccccc"
         id="path3116"
         d="M 158.75,99.25 C 154.61693,80.745984 143.38259,77.761105 134.25,88.75 C 102.72969,95.360032 121.48287,114.74509 140.25,117 C 147.49429,121.67876 155.44819,126.92521 166,134.25 C 187.67323,152.86558 213.30008,176.56439 230.75,189.75 C 243.54921,201.59817 248.83255,225.7792 266.5,207 C 289.88543,209.55948 284.38225,187.39148 265,186.25 C 248.55755,183.77278 234.95975,174.18396 222.5,161.75 C 200.58213,141.40239 174.12626,124.35515 158.75,99.25 z "
         style="opacity:1;color:#000000;fill:#ffffff;fill-opacity:1;fill-rule:evenodd;stroke:#010101;stroke-width:0.5;stroke-linecap:butt;stroke-linejoin:miter;marker:none;marker-start:none;marker-mid:none;marker-end:none;stroke-miterlimit:4;stroke-dasharray:none;stroke-dashoffset:0;stroke-opacity:1;visibility:visible;display:inline;overflow:visible" />
      <path
         sodipodi:nodetypes="cc"
         id="path3991"
         d="M 234.5,185.25 C 250.903,199.0992 247.1156,209.13382 257.75,205.5"
         style="opacity:1;color:#000000;fill:none;fill-opacity:0.75;fill-rule:evenodd;stroke:#000000;stroke-width:1;stroke-linecap:butt;stroke-linejoin:miter;marker:none;marker-start:none;marker-mid:none;marker-end:none;stroke-miterlimit:4;stroke-dasharray:none;stroke-dashoffset:0;stroke-opacity:1;visibility:visible;display:inline;overflow:visible" />
      <path
         sodipodi:nodetypes="cc"
         id="path4866"
         d="M 269.25,197.75 C 269.16881,196.4156 267.89299,195.67851 266.5,195"
         style="fill:none;fill-opacity:0.75;fill-rule:evenodd;stroke:#000000;stroke-width:1px;stroke-linecap:butt;stroke-linejoin:miter;stroke-opacity:1" />
      <path
         sodipodi:nodetypes="cc"
         id="path4868"
         d="M 138.25,102.25 C 131.97323,107.97322 143.11319,108.52708 154.25,118"
         style="fill:none;fill-opacity:0.75;fill-rule:evenodd;stroke:#000000;stroke-width:1px;stroke-linecap:butt;stroke-linejoin:miter;stroke-opacity:1" />
    </g>
    <g
       style="display:inline"
       id="g4876">
      <path
         sodipodi:nodetypes="ccccccccc"
         id="path4878"
         d="M 158.75,99.25 C 154.61693,80.745984 143.38259,77.761105 134.25,88.75 C 102.72969,95.360032 121.48287,114.74509 140.25,117 C 147.49429,121.67876 155.44819,126.92521 166,134.25 C 187.67323,152.86558 213.30008,176.56439 230.75,189.75 C 243.54921,201.59817 248.83255,225.7792 266.5,207 C 289.88543,209.55948 284.38225,187.39148 265,186.25 C 248.55755,183.77278 234.95975,174.18396 222.5,161.75 C 200.58213,141.40239 174.12626,124.35515 158.75,99.25 z "
         style="opacity:1;color:#000000;fill:#ffffff;fill-opacity:1;fill-rule:evenodd;stroke:#010101;stroke-width:0.5;stroke-linecap:butt;stroke-linejoin:miter;marker:none;marker-start:none;marker-mid:none;marker-end:none;stroke-miterlimit:4;stroke-dasharray:none;stroke-dashoffset:0;stroke-opacity:1;visibility:visible;display:inline;overflow:visible" />
      <path
         sodipodi:nodetypes="cc"
         id="path4880"
         d="M 234.5,185.25 C 250.903,199.0992 247.1156,209.13382 257.75,205.5"
         style="opacity:1;color:#000000;fill:none;fill-opacity:0.75;fill-rule:evenodd;stroke:#000000;stroke-width:1;stroke-linecap:butt;stroke-linejoin:miter;marker:none;marker-start:none;marker-mid:none;marker-end:none;stroke-miterlimit:4;stroke-dasharray:none;stroke-dashoffset:0;stroke-opacity:1;visibility:visible;display:inline;overflow:visible" />
      <path
         sodipodi:nodetypes="cc"
         id="path4882"
         d="M 269.25,197.75 C 269.16881,196.4156 267.89299,195.67851 266.5,195"
         style="fill:none;fill-opacity:0.75;fill-rule:evenodd;stroke:#000000;stroke-width:1px;stroke-linecap:butt;stroke-linejoin:miter;stroke-opacity:1" />
      <path
         sodipodi:nodetypes="cc"
         id="path4884"
         d="M 138.25,102.25 C 131.97323,107.97322 143.11319,108.52708 154.25,118"
         style="fill:none;fill-opacity:0.75;fill-rule:evenodd;stroke:#000000;stroke-width:1px;stroke-linecap:butt;stroke-linejoin:miter;stroke-opacity:1" />
    </g>
  </g>
  <g
     inkscape:groupmode="layer"
     id="layer2"
     inkscape:label="d"
     style="display:inline">
    <path
       style="fill:#010101;fill-opacity:1;fill-rule:evenodd;stroke:#000000;stroke-width:1px;stroke-linecap:butt;stroke-linejoin:miter;stroke-opacity:1"
       d="M 177.25,168 L 178.75,156.25 L 220.75,156.75 L 222,169.5 L 212.75,187.75 L 199.75,192.25 L 184.75,187.25 L 177.25,168 z "
       id="path5816" />
    <path
       style="fill:#ffffff;fill-opacity:1;fill-rule:evenodd;stroke:#1f1418;stroke-width:2;stroke-linecap:butt;stroke-linejoin:miter;stroke-miterlimit:4;stroke-dasharray:none;stroke-opacity:1"
       d="M 171.11984,149.38626 C 157.71548,125.28425 173.22866,100.07469 199.05056,101.65655 C 229.92706,102.01035 233.70854,120.1543 232.99168,132.06214 C 232.40927,140.33225 231.41891,147.37851 228.04194,147.26494 C 226.27248,146.66054 226.14251,142.1556 225.74384,137.89577 C 224.74504,143.91282 222.90634,150.83976 227.33483,150.97725 C 237.34419,151.48061 226.27416,160.69184 219.37988,162.46773 C 216.22627,163.31123 212.12737,170.46847 209.65716,171.48334 C 203.72705,172.21894 197.02545,172.633 189.68139,171.48335 C 187.59172,171.13262 183.51892,163.23451 178.54446,161.76062 C 171.76137,158.9283 164.18164,156.33497 171.11984,149.38626 z "
       id="path1364"
       sodipodi:nodetypes="ccccccccccc" />
    <path
       style="opacity:1;color:#000000;fill:none;fill-opacity:0.75;fill-rule:evenodd;stroke:#010101;stroke-width:2;stroke-linecap:butt;stroke-linejoin:miter;marker:none;marker-start:none;marker-mid:none;marker-end:none;stroke-miterlimit:4;stroke-dasharray:none;stroke-dashoffset:0;stroke-opacity:1;visibility:visible;display:inline;overflow:visible"
       d="M 180.25,116.5 C 176.16524,122.35051 176.32556,127.43519 173.5,131.25 C 172.11111,137.44445 175.15813,148.35365 171.25,149.75"
       id="path3112"
       sodipodi:nodetypes="ccc" />
    <path
       style="opacity:1;color:#000000;fill:#ffffff;fill-opacity:1;fill-rule:evenodd;stroke:#1f1418;stroke-width:2;stroke-linecap:butt;stroke-linejoin:miter;marker:none;marker-start:none;marker-mid:none;marker-end:none;stroke-miterlimit:4;stroke-dasharray:none;stroke-dashoffset:0;stroke-opacity:1;visibility:visible;display:inline;overflow:visible"
       d="M 177.25,166.25 C 180.33534,168.24732 183.82012,169.71206 185,174.25 C 185.1899,178.98838 185.4036,183.71487 189.5,186.5 C 196,188.94313 202.5,188.0088 209,186.5 C 212.52969,184.72461 213.30564,179.50704 214.25,174.5 C 215.19085,169.9946 218.16036,168.53221 221.75,168 C 223.00791,168.33333 221.33769,178.41667 220,184 C 216.8323,190.18621 212.08219,194.6444 206.25,197.5 C 201.34505,198.30989 196.99577,198.00847 192.75,197.5 C 186.85315,196.02389 180.14858,188.22093 178.25,183.5 C 176.96568,177.75 175.77286,165.75 177.25,166.25 z "
       id="path3114"
       sodipodi:nodetypes="ccccccccccc" />
    <path
       style="fill:#010101;fill-opacity:1;fill-rule:evenodd;stroke:#000000;stroke-width:1px;stroke-linecap:butt;stroke-linejoin:miter;stroke-opacity:1;display:inline"
       d="M 195.33825,161.05352 C 194.33982,162.54775 198.7854,147.22075 199.58089,147.26494 C 200.55267,147.31892 204.3134,162.66904 203.46998,161.23029 C 201.85154,158.46946 198.1545,156.8388 195.33825,161.05352 z "
       id="path4911"
       sodipodi:nodetypes="czss" />
    <path
       style="color:#000000;fill:#010101;fill-opacity:1;fill-rule:evenodd;stroke:#010101;stroke-width:1;stroke-linecap:butt;stroke-linejoin:miter;stroke-miterlimit:4;stroke-dashoffset:0;stroke-opacity:1;marker:none;marker-start:none;marker-mid:none;marker-end:none;visibility:visible;display:inline;overflow:visible"
       d="M 194.63114,142.9339 C 194.63114,146.88592 190.48184,150.80047 186.67619,150.80047 C 180.39567,150.80047 179.7819,148.83046 179.7819,142.9339 C 179.7819,138.98188 182.87054,134.36023 186.67619,134.36023 C 190.48184,134.36023 194.80792,136.50701 194.63114,142.9339 z "
       id="path4906"
       sodipodi:nodetypes="csssc" />
    <path
       style="color:#000000;fill:#010101;fill-opacity:1;fill-rule:evenodd;stroke:#010101;stroke-width:1;stroke-linecap:butt;stroke-linejoin:miter;marker:none;marker-start:none;marker-mid:none;marker-end:none;stroke-miterlimit:4;stroke-dashoffset:0;stroke-opacity:1;visibility:visible;display:inline;overflow:visible"
       d="M 204.78714,142.9339 C 204.78714,146.88592 208.93644,150.80047 212.74209,150.80047 C 219.02261,150.80047 219.63638,148.83046 219.63638,142.9339 C 219.63638,138.98188 216.54774,134.36023 212.74209,134.36023 C 208.93644,134.36023 204.61036,136.50701 204.78714,142.9339 z "
       id="path4909"
       sodipodi:nodetypes="csssc" />
    <path
       style="fill:#ffffff;fill-opacity:1;fill-rule:evenodd;stroke:#000000;stroke-width:0.5;stroke-linecap:butt;stroke-linejoin:miter;stroke-miterlimit:4;stroke-dasharray:none;stroke-opacity:1;display:inline"
       d="M 189.85817,171.48334 C 189.42643,173.01541 188.95062,174.90102 188.97429,176.43309 C 190.03495,177.5625 191.09561,177.23734 192.15627,176.96342 C 192.24862,175.13673 192.18064,173.31003 191.80271,171.48334 L 189.85817,171.48334 z "
       id="path4913"
       sodipodi:nodetypes="ccccc" />
    <path
       style="fill:#ffffff;fill-opacity:1;fill-rule:evenodd;stroke:#000000;stroke-width:0.5;stroke-linecap:butt;stroke-linejoin:miter;stroke-miterlimit:4;stroke-dasharray:none;stroke-opacity:1;display:inline"
       d="M 206.5684,171.88342 C 206.42087,173.46831 206.29393,175.40887 206.5943,176.9114 C 207.84173,177.83036 208.82609,177.31873 209.81972,176.8575 C 209.58017,175.04423 209.18294,173.25995 208.48087,171.53173 L 206.5684,171.88342 z "
       id="path4918"
       sodipodi:nodetypes="ccccc" />
    <path
       style="fill:#ffffff;fill-opacity:1;fill-rule:evenodd;stroke:#000000;stroke-width:0.5;stroke-linecap:butt;stroke-linejoin:miter;stroke-miterlimit:4;stroke-dasharray:none;stroke-opacity:1;display:inline"
       d="M 193.68701,171.94628 C 193.26326,173.4873 192.80075,175.3827 192.86098,176.91391 C 194.01402,178.02023 195.13378,177.6723 196.25472,177.37561 C 196.31104,175.54735 196.19699,173.72254 195.75354,171.90441 L 193.68701,171.94628 z "
       id="path4920"
       sodipodi:nodetypes="ccccc" />
    <path
       style="fill:#ffffff;fill-opacity:1;fill-rule:evenodd;stroke:#000000;stroke-width:0.5;stroke-linecap:butt;stroke-linejoin:miter;stroke-miterlimit:4;stroke-dasharray:none;stroke-opacity:1;display:inline"
       d="M 202.41594,172.15008 C 202.09116,173.71495 201.75026,175.63595 201.90785,177.16022 C 203.12899,178.19089 204.22432,177.77237 205.3241,177.40492 C 205.26391,175.57679 205.03391,173.76294 204.47561,171.97673 L 202.41594,172.15008 z "
       id="path4922"
       sodipodi:nodetypes="ccccc" />
    <path
       style="fill:#ffffff;fill-opacity:1;fill-rule:evenodd;stroke:#000000;stroke-width:0.5;stroke-linecap:butt;stroke-linejoin:miter;stroke-miterlimit:4;stroke-dasharray:none;stroke-opacity:1;display:inline"
       d="M 197.82838,172.34494 C 197.47722,173.9041 197.10393,175.81907 197.23576,177.34578 C 198.43932,178.39693 199.54156,177.99696 200.64739,177.64814 C 200.61808,175.81925 200.41874,174.00178 199.89068,172.2064 L 197.82838,172.34494 z "
       id="path4924"
       sodipodi:nodetypes="ccccc" />
    <path
       style="fill:#ffffff;fill-opacity:1;fill-rule:evenodd;stroke:#000000;stroke-width:0.5;stroke-linecap:butt;stroke-linejoin:miter;stroke-miterlimit:4;stroke-dasharray:none;stroke-opacity:1;display:inline"
       d="M 191.81958,187.16665 C 192.32744,185.65127 192.89349,183.78417 192.91756,182.25197 C 191.82711,181.0839 190.68992,181.36974 189.55435,181.60432 C 189.39757,183.42671 189.41109,185.25503 189.75388,187.0948 L 191.81958,187.16665 z "
       id="path4926"
       sodipodi:nodetypes="ccccc" />
    <path
       style="fill:#ffffff;fill-opacity:1;fill-rule:evenodd;stroke:#000000;stroke-width:0.5;stroke-linecap:butt;stroke-linejoin:miter;stroke-miterlimit:4;stroke-dasharray:none;stroke-opacity:1;display:inline"
       d="M 205.04791,187.1865 C 204.54005,185.67112 203.974,183.80402 203.94993,182.27182 C 205.04038,181.10375 206.17757,181.38959 207.31314,181.62417 C 207.46992,183.44656 207.4564,185.27488 207.11361,187.11465 L 205.04791,187.1865 z "
       id="path4928"
       sodipodi:nodetypes="ccccc" />
    <path
       style="fill:#ffffff;fill-opacity:1;fill-rule:evenodd;stroke:#000000;stroke-width:0.5;stroke-linecap:butt;stroke-linejoin:miter;stroke-miterlimit:4;stroke-dasharray:none;stroke-opacity:1;display:inline"
       d="M 199.6759,187.60055 C 199.15826,186.06589 198.58966,184.17744 198.63359,182.64552 C 199.95233,181.52247 201.25709,181.85403 202.56237,182.1343 C 202.65867,183.96154 202.55729,185.78782 202.07371,187.61223 L 199.6759,187.60055 z "
       id="path4930"
       sodipodi:nodetypes="ccccc" />
    <path
       style="fill:#ffffff;fill-opacity:1;fill-rule:evenodd;stroke:#000000;stroke-width:0.5;stroke-linecap:butt;stroke-linejoin:miter;stroke-miterlimit:4;stroke-dasharray:none;stroke-opacity:1;display:inline"
       d="M 193.93118,187.53932 C 193.62741,185.94845 193.32135,184.00015 193.57355,182.48849 C 195.03297,181.55554 196.28041,182.06175 197.53534,182.51721 C 197.38184,184.34053 197.03264,186.13598 196.30505,187.87751 L 193.93118,187.53932 z "
       id="path4932"
       sodipodi:nodetypes="ccccc" />
  </g>
</svg>
