<svg>
    <path fill="black" d="M203.2,109 C203.2,120.667,203.2,132.333,203.2,144 200.533,144.467,197.867,144.933,195.2,145.4 203.7,154.667,212.2,163.933,220.7,173.2 220.867,177.4,221.033,181.6,221.2,185.8 224.167,201,227.133,216.2,230.1,231.4 234.467,235.633,238.833,239.867,243.2,244.1 245.367,244.267,247.533,244.433,249.7,244.6 250.467,246.5,251.233,248.4,252,250.3 246.367,251.767,240.733,253.233,235.1,254.7 232.2,253.8,229.3,252.9,226.4,252 226.033,253.1,225.667,254.2,225.3,255.3 222.2,255.133,219.1,254.967,216,254.8 214.7,248.3,213.4,241.8,212.1,235.3 211.2,234.933,210.3,234.567,209.4,234.2 207.2,211.8,197.4,205.3,199,184.5 197.533,183.6,196.067,182.7,194.6,181.8 194.767,180.333,194.933,178.867,195.1,177.4 188,173.2,180.9,169,173.8,164.8 167.367,173.1,160.933,181.4,154.5,189.7 151.4,192.8,148.3,195.9,145.2,199 143.2,202.633,141.2,206.267,139.2,209.9 133.067,219.6,126.933,229.3,120.8,239 119.633,238.4,118.467,237.8,117.3,237.2 117.7,239.3,118.1,241.4,118.5,243.5 120.267,246.133,122.033,248.767,123.8,251.4 128.2,251.9,127.6,254.1,127.6,258.3 127.6,258.3,115.8,260,112.1,256 109.833,253.9,107.567,251.8,105.3,249.7 104.433,250.2,103.567,250.7,102.7,251.2 100,249.267,97.3,247.333,94.6,245.4 95.9,241.5,97.2,237.6,98.5,233.7 100.367,231.433,102.233,229.167,104.1,226.9 103.933,225.6,103.767,224.3,103.6,223 120.5,187.5,131.9,184.9,136.8,176.2 141.167,167.833,145.533,159.467,149.9,151.1 149.9,151.1,137.7,150.3,131,143.4 131,143.4,141.9,123.2,141.4,113.6 128.7,97.4,123.9,93.2,147.2,70.9 150.3,68.1,147.9,62.3,154.5,60.6 159.367,59.3,164.233,58,169.1,56.7 170.6,53.567,172.1,50.433,173.6,47.3 175.167,46.767,176.733,46.233,178.3,45.7 178.533,44,178.767,42.3,179,40.6 178.6,38.2,175.5,37.4,177.4,32.6 177.4,32.6,177.3,31.4,176.9,28 176.4,24.2,181.8,18.5,186,19.5 192,22.4,196.1,15.5,201,19.4 201.767,19.967,202.533,20.533,203.3,21.1 200.9,20.7,198.6,22.7,199.5,25.3 200.033,26.867,200.567,28.433,201.1,30 200.667,30.8,200.233,31.6,199.8,32.4 200.333,33.367,200.867,34.333,201.4,35.3 200.8,38.033,200.2,40.767,199.6,43.5 199.7,44.633,199.8,45.767,199.9,46.9 200.4,48.5,199.1,49.2,196.7,49.2 196.567,49.933,196.433,50.667,196.3,51.4 198.9,53.533,201.5,55.667,204.1,57.8 202.6,59.667,201.1,61.533,199.6,63.4 201.033,64.8,202.467,66.2,203.9,67.6 203.4,69.467,202.9,71.333,202.4,73.2 203.567,74.767,204.733,76.333,205.9,77.9 209.2,76.7,214.1,76.8,212.4,80.1 211.8,81.1,211.7,81.9,213.5,83.2 215.1,84.4,215.3,86.3,214.7,87.7 214.7,87.7,215,91.6,208.2,94 203,96,213.2,97.7,203.2,109z"/>
    <path fill="#3888C8" d="M194.7,53.2 C196.6,54.733,198.5,56.267,200.4,57.8 199.467,58.967,198.533,60.133,197.6,61.3 197.233,61.733,196.867,62.167,196.5,62.6 198.133,64.433,199.767,66.267,201.4,68.1 200.067,71.867,198.733,75.633,197.4,79.4 197.967,79.833,198.533,80.267,199.1,80.7 199.8,100.567,200.5,120.433,201.2,140.3 198.967,120.7,196.733,101.1,194.5,81.5 195.1,77.933,195.7,74.367,196.3,70.8 195,68.667,193.7,66.533,192.4,64.4 193.167,60.667,193.933,56.933,194.7,53.2z"/>
    <path fill="#185BA9" d="M218.1,174.1 C209.833,165.067,201.567,156.033,193.3,147 191.267,146.733,189.233,146.467,187.2,146.2 188,145.367,188.8,144.533,189.6,143.7 188.433,142.3,187.267,140.9,186.1,139.5 178.7,141.5,171.3,143.5,163.9,145.5 167.2,145.7,170.5,145.9,173.8,146.1 172.4,147.5,171,148.9,169.6,150.3 171.933,151.967,174.267,153.633,176.6,155.3 182.933,156.1,189.267,156.9,195.6,157.7 191.233,158.5,186.867,159.3,182.5,160.1 184.433,161.333,186.367,162.567,188.3,163.8 191.2,164.1,194.1,164.4,197,164.7 195.3,165.3,193.6,165.9,191.9,166.5 195.933,169.333,199.967,172.167,204,175 203.2,175.933,202.4,176.867,201.6,177.8 205.633,178.9,209.667,180,213.7,181.1 215.167,178.767,216.633,176.433,218.1,174.1z"/>
    <path fill="#17546C" d="M248,247 C246.4,246.867,244.8,246.733,243.2,246.6 242.867,246.567,242.533,246.533,242.2,246.5 241.967,246.267,241.733,246.033,241.5,245.8 238.367,242.8,235.233,239.8,232.1,236.8 230.2,237.633,228.3,238.467,226.4,239.3 227.2,240.633,228,241.967,228.8,243.3 227.367,243.667,225.933,244.033,224.5,244.4 225.467,245.9,226.433,247.4,227.4,248.9 230.067,249.733,232.733,250.567,235.4,251.4 239.7,250.167,244,248.933,248.3,247.7 248.2,247.467,248.1,247.233,248,247z"/>
    <path fill="#17546C" d="M221.4,235.5 C222.633,238.467,223.867,241.433,225.1,244.4 224.567,246.967,224.033,249.533,223.5,252.1 221.833,252,220.167,251.9,218.5,251.8 217.6,247.867,216.7,243.933,215.8,240 217.667,238.5,219.533,237,221.4,235.5z"/>
    <path fill="#185BA9" d="M212.1,231.9 C211,222.5,208.5,215.7,206.3,209.7 203.5,202,201,195.3,201.9,184.4 203.333,183.2,204.767,182,206.2,180.8 206.933,182,207.667,183.2,208.4,184.4 209.5,183.133,210.6,181.867,211.7,180.6 211.7,185.267,211.7,189.933,211.7,194.6 214.533,207.133,217.367,219.667,220.2,232.2 217.5,232.1,214.8,232,212.1,231.9z"/>
    <path fill="#17546C" d="M114.1,253.8 C114.167,253.867,114.233,253.933,114.3,254 115.8,255.6,120.9,255.9,125,255.6 125,255,125,254.5,124.9,254.2 124.8,254.1,124.4,254,123.6,253.9 123.167,253.833,122.733,253.767,122.3,253.7 122.067,253.333,121.833,252.967,121.6,252.6 119.833,249.967,118.067,247.333,116.3,244.7 115.867,242.933,115.433,241.167,115,239.4 113.4,240.033,111.8,240.667,110.2,241.3 110.7,242.533,111.2,243.767,111.7,245 110.767,245.3,109.833,245.6,108.9,245.9 110.633,248.533,112.367,251.167,114.1,253.8z"/>
    <path fill="#17546C" d="M104,247.2 C103.633,247.4,103.267,247.6,102.9,247.8 101.233,246.6,99.567,245.4,97.9,244.2 98.933,241.1,99.967,238,101,234.9 102.067,235.833,103.133,236.767,104.2,237.7 104.133,240.867,104.067,244.033,104,247.2z"/>
    <path fill="#185BA9" d="M106.6,223.3 C117.9,199.9,126.6,191.3,132.4,185.5 135.3,182.6,137.6,180.4,139.3,177.3 139.3,177.3,139.3,177.3,139.3,177.3 139.3,177.3,139.3,177.3,139.3,177.3 143.067,170.2,146.833,163.1,150.6,156 150.233,158.767,149.867,161.533,149.5,164.3 152.6,162.067,155.7,159.833,158.8,157.6 160.8,158.667,162.8,159.733,164.8,160.8 163.1,162.9,161.4,165,159.7,167.1 153.967,172.6,148.233,178.1,142.5,183.6 143.667,184.7,144.833,185.8,146,186.9 135.4,192.6,117.6,226.9,113.8,236 111.4,231.767,109,227.533,106.6,223.3z"/>
    <path fill="#3888C8" d="M154.5,148.4 C153.1,148.3,151.7,148.2,150.3,148.1 150.2,148.1,140.7,147.4,134.7,142.5 137.3,137.4,142.5,127,143.8,118.1 145.9,120.633,148,123.167,150.1,125.7 152.567,124.367,155.033,123.033,157.5,121.7 158.5,124.9,159.4,126.3,159.4,126.3 157.767,133.667,156.133,141.033,154.5,148.4z"/>
    <path fill="#3888C8" d="M168.1,59.7 C168.1,59.7,155.4,63,155.3,63 153,63.6,152.6,64.6,152,67.1 151.6,68.8,151,71,149.3,72.6 128.6,92.5,131,95.5,142.5,110 145.267,113.267,148.033,116.533,150.8,119.8 152.567,118.133,154.333,116.467,156.1,114.8 153.767,111.033,151.433,107.267,149.1,103.5 145.3,106.4,136.7,102.1,148.8,98.1 153,97.7,137.1,95,144.5,92.7 152.4,91.4,156.6,85.6,156.6,85.6 162.2,80.6,160.8,68.6,156.9,67.5 163.4,66.333,169.9,65.167,176.4,64 172.767,63.8,169.133,63.6,165.5,63.4 166.367,62.167,167.233,60.933,168.1,59.7z"/>
    <path fill="#3888C8" d="M179.3,48 C178.1,48.433,176.9,48.867,175.7,49.3 174.067,53,172.433,56.7,170.8,60.4 172.967,60.633,175.133,60.867,177.3,61.1 177.967,56.733,178.633,52.367,179.3,48z"/>
    <path fill="#CCA491" d="M196.7,33.7 C196.9,35.333,197.1,36.967,197.3,38.6 197.867,38.5,198.433,38.4,199,38.3 198.633,36.767,198.267,35.233,197.9,33.7 197.5,33.7,197.1,33.7,196.7,33.7z"/>
    <path fill="#CCA491" d="M181.9,42 C181.867,45.567,181.833,49.133,181.8,52.7 183.567,54.567,185.333,56.433,187.1,58.3 185.367,52.867,183.633,47.433,181.9,42z"/>
    <path fill="#ADC4E6" d="M180.4,53.1 C183.867,57.367,187.333,61.633,190.8,65.9 189.533,67.567,188.267,69.233,187,70.9 184.9,67.133,182.8,63.367,180.7,59.6 180.6,57.433,180.5,55.267,180.4,53.1z"/>
    <path fill="#3888C8" d="M180.7,62.7 C176.067,65.433,171.433,68.167,166.8,70.9 168.5,76.3,166.8,86.6,158.2,90.8 161.267,89.867,164.333,88.933,167.4,88 163.8,92.067,160.2,96.133,156.6,100.2 158.4,99.967,160.2,99.733,162,99.5 160.133,101.5,158.267,103.5,156.4,105.5 157.133,106.767,157.867,108.033,158.6,109.3 159.467,109.167,160.333,109.033,161.2,108.9 162.133,109.933,163.067,110.967,164,112 163.633,112.5,163.267,113,162.9,113.5 164.367,114.367,165.833,115.233,167.3,116.1 167.3,116.1,170.6,109.8,170.2,114.4 169.8,119,168.1,125.9,162.3,131.5 162.767,135.167,163.233,138.833,163.7,142.5 168.2,139.667,172.7,136.833,177.2,134 173.9,133.733,170.6,133.467,167.3,133.2 168.567,132,169.833,130.8,171.1,129.6 174.467,130.8,177.833,132,181.2,133.2 179.333,131.433,177.467,129.667,175.6,127.9 175.167,126.6,174.733,125.3,174.3,124 175.033,124.033,175.767,124.067,176.5,124.1 175.3,119.733,174.1,115.367,172.9,111 172.033,110.867,171.167,110.733,170.3,110.6 183.3,96.5,182.8,68.7,180.7,62.7z"/>
    <path fill="black" d="M172.7,71.2 C179.2,89.3,168.9,110.3,168.9,110.3 176.3,91.5,170.6,73.3,170.6,73.3 171.3,72.6,172,71.9,172.7,71.2z"/>
    <path fill="#ADC4E6" d="M193.2,71.9 C195.3,79.7,194.3,101.4,190.4,108.9 187.633,108.867,184.867,108.833,182.1,108.8 183.733,108.333,185.367,107.867,187,107.4 185.567,104.2,184.133,101,182.7,97.8 184.967,100.2,187.233,102.6,189.5,105 188.933,102.7,188.367,100.4,187.8,98.1 189.267,98.233,190.733,98.367,192.2,98.5 190.333,95.733,188.467,92.967,186.6,90.2 189.7,83.4,190.7,70.7,190.7,70.7 191.533,71.1,192.367,71.5,193.2,71.9z"/>
    <path fill="#3888C8" d="M201.4,77.4 C202.6,78.667,203.8,79.933,205,81.2 204.8,82.467,204.6,83.733,204.4,85 203.367,85.6,202.333,86.2,201.3,86.8 201.3,83.667,201.3,80.533,201.3,77.4z"/>
    <path fill="#185BA9" d="M189.8,112.7 C188.467,112.7,187.133,112.7,185.8,112.7 185.6,116.467,185.4,120.233,185.2,124 185.933,123.433,186.667,122.867,187.4,122.3 187.4,126.467,187.4,130.633,187.4,134.8 188.2,127.433,189,120.067,189.8,112.7z"/>
    <path fill="black" d="M154.1,68.2 C159.5,72.1,156.7,80.2,156.7,80.2 156.7,74.2,153.4,71.4,153.4,71.4 153.633,70.333,153.867,69.267,154.1,68.2z"/>
    <path fill="#CCA491" d="M191.2,34 C192.167,32.8,193.133,31.6,194.1,30.4 194.767,30.367,195.433,30.333,196.1,30.3 195.467,28.333,194.833,26.367,194.2,24.4 192.3,24.733,190.4,25.067,188.5,25.4 188.333,27.367,188.167,29.333,188,31.3 186.667,31.667,185.333,32.033,184,32.4 182.1,30,176.5,33,181.8,38.2 182.633,38.233,183.467,38.267,184.3,38.3 184.2,38.533,184.1,38.767,184,39 184,39,184,39,184,39 184,39.033,184,39.067,184,39.1 183.967,39.267,183.933,39.433,183.9,39.6 183.933,39.6,183.967,39.6,184,39.6 184.067,41.433,184.133,43.267,184.2,45.1 187.2,46.367,190.2,47.633,193.2,48.9 187.2,43.5,197.4,39.8,191.2,34z"/>
    <path fill="black" d="M183.8,34.4 C183.467,34.667,183.133,34.933,182.8,35.2 183.067,35.7,183.333,36.2,183.6,36.7 180.4,34.9,183.2,33.5,183.8,34.4z"/>
    <path fill="#3888C8" d="M201.3,93.4 C201.5,97.1,206.8,99.2,206.8,99.2 205.3,100.3,201.5,99.9,201.5,99.9 201.433,97.733,201.367,95.567,201.3,93.4z"/>
    <path fill="black" d="M156.5,83.5 C150.4,89.5,146,90.3,143.2,88.7 138.7,86.9,143.3,82.2,146.6,84.6 150.2,86.7,156.5,83.5,156.5,83.5z"/>
    <path fill="black" d="M160.9,104.5 C162.9,102.867,164.9,101.233,166.9,99.6 167.3,100.533,167.7,101.467,168.1,102.4 165.7,103.1,163.3,103.8,160.9,104.5z"/>
    <path fill="black" d="M159.4,132.5 C155.2,132.5,146.2,129.8,146.2,129.8 146.1,130.8,144.4,134.1,144.4,134.1 149.3,136.8,158.5,137.3,158.5,137.3 158.8,135.7,159.1,134.1,159.4,132.5z"/>
    <path fill="#3888C8" d="M209,83.9 C208.5,84.8,208,85.7,207.5,86.6 206.9,87.5,209.2,88.9,209.2,88.9 209.8,87.967,210.4,87.033,211,86.1 210.333,85.367,209.667,84.633,209,83.9z"/>
    <path fill="#185BA9" d="M152.4,178.2 C156.1,177.5,164.5,170.8,164.5,170.8 163,174,155.4,178.9,155.4,178.9 154.4,178.667,153.4,178.433,152.4,178.2z"/>
    <path fill="#185BA9" d="M181.5,159.5 C179.833,158.1,178.167,156.7,176.5,155.3 174.967,155.4,173.433,155.5,171.9,155.6 175.1,156.9,178.3,158.2,181.5,159.5z"/>
    <path fill="#185BA9" d="M197.8,179.4 C198.8,178.733,199.8,178.067,200.8,177.4 199.4,176.167,198,174.933,196.6,173.7 197,175.6,197.4,177.5,197.8,179.4z"/>
    <path fill="black" d="M125,209.9 C121.4,212.367,117.8,214.833,114.2,217.3 114.367,216,114.533,214.7,114.7,213.4 118.133,212.233,121.567,211.067,125,209.9z"/>
    <path fill="black" d="M208.1,185.3 C207.267,187.5,206.433,189.7,205.6,191.9 204.867,190.9,204.133,189.9,203.4,188.9 204.967,187.7,206.533,186.5,208.1,185.3z"/>
    <path fill="black" d="M141.9,182.4 C146.5,177.967,151.1,173.533,155.7,169.1 150.2,172.533,144.7,175.967,139.2,179.4 140.1,180.4,141,181.4,141.9,182.4z"/>
    <path fill="black" d="M254.5,30.2 C245.5,28.6,248.4,35.4,242.1,34.4 231,33.9,239.8,46.7,232.6,46.3 229.3,50.2,231.2,54.7,234.4,55 237.6,55.7,233.7,59.9,238.1,62.9 235.767,64.8,233.433,66.7,231.1,68.6 226,72.1,228.5,78.2,228.8,85.2 229.2,88.7,219.1,94.8,224.6,102.3 226.5,104.5,223.3,106.9,223.3,106.9 221,108.4,222.9,110.5,224.1,111.1 221.1,117.3,222.8,128.1,224,136.9 221.6,139.6,222.2,142.6,223.6,143.9 223.1,145.067,222.6,146.233,222.1,147.4 219.433,146.533,216.767,145.667,214.1,144.8 213.133,145,212.167,145.2,211.2,145.4 214.5,146.8,217.8,148.2,221.1,149.6 221.067,149.7,221.033,149.8,221,149.9 219.3,153.3,224.3,152.9,225.9,156.8 227.7,160,231.4,157.4,233.2,159.7 233.1,158.533,233,157.367,232.9,156.2 239.267,160.9,245.633,165.6,252,170.3 251.833,172.367,251.667,174.433,251.5,176.5 224.9,183.7,223.9,214.1,209.9,221.3 204.8,216.3,198.6,223,198.6,223 198.667,224.733,198.733,226.467,198.8,228.2 199.633,228.333,200.467,228.467,201.3,228.6 200.4,236.5,194.8,234.8,197.9,252.6 199.8,254.4,200.7,253.4,202.6,249.1 203.867,247.367,205.133,245.633,206.4,243.9 206.467,243.167,206.533,242.433,206.6,241.7 223.7,221.6,242.1,205.8,262.7,188 255.4,202.8,261.5,212.3,262.4,224 263.1,227.1,265.4,225.6,265.4,227.8 265.5,231,265.9,237.2,265.6,241.2 263.4,247.6,266.6,252.4,266.6,252.4 268.5,252.667,270.4,252.933,272.3,253.2 272.9,252.467,273.5,251.733,274.1,251 275.133,251.133,276.167,251.267,277.2,251.4 278.467,252.233,279.733,253.067,281,253.9 287.8,255,294.5,252.3,294.5,252.3 294.9,250.6,295.6,249.8,290.7,249.6 288.467,247.5,286.233,245.4,284,243.3 283.467,243.367,282.933,243.433,282.4,243.5 281.033,241.767,279.667,240.033,278.3,238.3 275.4,225.2,276.8,194.1,279.7,183.1 280.1,180,280.2,176.6,280.2,173.3 283.367,171.9,286.533,170.5,289.7,169.1 286.4,168.033,283.1,166.967,279.8,165.9 279.1,157.4,277.6,150.5,277.6,150.5 278.667,147.033,279.733,143.567,280.8,140.1 281.767,139.867,282.733,139.633,283.7,139.4 284.767,140.467,285.833,141.533,286.9,142.6 293.367,137.933,299.833,133.267,306.3,128.6 306.433,123,306.567,117.4,306.7,111.8 307.8,110.5,308.9,109.2,310,107.9 308.767,105.7,307.533,103.5,306.3,101.3 307.733,94.7,309.167,88.1,310.6,81.5 308.733,80.667,306.867,79.833,305,79 317.2,55.6,319.7,40.2,300.7,67.9 294.8,58.3,282.2,60.3,278.2,68.7 277.2,67.433,276.2,66.167,275.2,64.9 270.2,57,258.4,61.1,258.4,61.1 258.2,59.467,258,57.833,257.8,56.2 261.8,56.8,262,55.4,261.1,51.5 261.267,50.467,261.433,49.433,261.6,48.4 261.867,48.1,262.133,47.8,262.4,47.5 261.867,46.167,261.333,44.833,260.8,43.5 260.833,43.067,260.867,42.633,260.9,42.2 260.567,40.567,260.233,38.933,259.9,37.3 262.4,34.2,261.4,32.5,254.5,30.2z"/>
    <path fill="black" d="M236.1,151.9 C235.1,145.8,230.5,141.7,230.9,136.9 232,128.9,235.6,122,235.6,118.5 235.6,116.5,238.1,119.3,239.6,115.3 239.6,115.3,245.7,105.3,248.8,102.6 250.6,105.4,251.3,110.2,250,113.9 244.5,130,240.8,136.3,252.4,157.2 246.967,155.433,241.533,153.667,236.1,151.9z"/>
    <path fill="#B66812" d="M279.7,82.6 C277.533,81.4,275.367,80.2,273.2,79 274.667,98.733,276.133,118.467,277.6,138.2 279.533,137.367,281.467,136.533,283.4,135.7 284.867,136.8,286.333,137.9,287.8,139 287.667,118.767,287.533,98.533,287.4,78.3 284.833,79.733,282.267,81.167,279.7,82.6z"/>
    <path fill="#F4969C" d="M251.4,100.8 C252.7,102.8,254.1,106.8,253.9,109.3 258.067,109.133,262.233,108.967,266.4,108.8 261.1,97.5,271.5,88.3,260.8,74.3 256.033,70.6,251.267,66.9,246.5,63.2 244.1,65.6,240.3,63.9,240.3,63.9 233,71.5,228.5,67.7,231.4,83.2 233.4,89.7,223.2,93.4,226.3,100.6 227.9,103.1,229.2,106.8,225.2,108 222.8,108.7,224.7,111.3,231,113.6 234.6,114.9,236.3,112,233.4,109.8 228.5,106.2,230.9,99.1,240.8,103.6 243.2,104.3,243,98.9,236.8,94.7 239.2,93.6,241.3,93.1,245.2,96.7 246.8,93.4,244.8,85.3,240.3,81.8 247.2,84,249.7,92.2,249.7,92.2 251,89.333,252.3,86.467,253.6,83.6 253.4,86.6,261.3,89.2,264.6,84.4 265.7,87.4,259.5,95.5,255.1,95.9 256.967,97.967,258.833,100.033,260.7,102.1 258.833,101.5,256.967,100.9,255.1,100.3 255.367,101.567,255.633,102.833,255.9,104.1 254.4,103,252.9,101.9,251.4,100.8z"/>
    <path fill="black" d="M240.3,67.3 C239.133,68.133,237.967,68.967,236.8,69.8 245.2,71.4,250.4,83.1,249.7,89.1 251.9,80.6,249.9,71,240.3,67.3z"/>
    <path fill="#FCD6C5" d="M226,114 C223.3,118.9,226.9,137.4,226.9,137.4 222.2,138.7,225.3,143.6,226.7,143.8 225.533,146.267,224.367,148.733,223.2,151.2 225.5,151.633,227.8,152.067,230.1,152.5 229.667,147.3,229.233,142.1,228.8,136.9 230.5,125,226.7,125.8,226,114z"/>
    <path fill="#FCD6C5" d="M225.6,211.6 C225.6,211.6,210.2,233,210,232.5 209.8,232,209.5,225.8,212.5,222.9 216.3,221.8,219.7,216.6,223.4,210.3 224.133,210.733,224.867,211.167,225.6,211.6z"/>
    <path fill="#128E87" d="M223.4,210.2 C229.8,199.5,237.3,185.5,250.2,183.1 256.2,182.6,256.1,183.7,256.1,183.7 246.333,193.333,236.567,202.967,226.8,212.6 226.4,212.2,226,211.8,225.6,211.4 224.867,211,224.133,210.6,223.4,210.2z"/>
    <path fill="#128E87" d="M269.7,162.2 C264.9,160.767,260.1,159.333,255.3,157.9 240.4,132.9,250.7,124.9,253,111.9 257.433,111.967,261.867,112.033,266.3,112.1 264.7,119.2,261.2,123.2,256.9,125 262.9,131.3,265.4,140.6,265.4,140.6 267.8,147.9,269.7,162.2,269.7,162.2z"/>
    <path fill="#FCD6C5" d="M257.3,40.3 C253.3,44,247.4,39.3,249.7,44.2 251.5,47.5,249.5,46.7,247.5,45.8 244.9,44.1,244,48.3,247.8,50.2 247.8,54.5,254.5,55.8,257.3,55.8 254.2,50,259.6,49.1,254.4,44.7 255.1,44.2,257.1,43.1,257.1,43.1 257.167,42.167,257.233,41.233,257.3,40.3z"/>
    <path fill="#FFDB87" d="M234,153.7 C249.833,158.767,265.667,163.833,281.5,168.9 279.633,169.5,277.767,170.1,275.9,170.7 275.967,171.967,276.033,173.233,276.1,174.5 262.067,167.567,248.033,160.633,234,153.7z"/>
    <path fill="#FFDB87" d="M252.2,167.3 C259.833,171.633,267.467,175.967,275.1,180.3 272.6,180.133,270.1,179.967,267.6,179.8 262.467,175.633,257.333,171.467,252.2,167.3z"/>
    <path fill="#128E87" d="M268.1,182 C261.9,191.8,259.2,203.6,265.5,222.3 267.133,223.133,268.767,223.967,270.4,224.8 267,203.5,273.5,182.7,273.5,182.7 272.4,183.733,271.3,184.767,270.2,185.8 269.5,184.533,268.8,183.267,268.1,182z"/>
    <path fill="#3A747B" d="M268.9,241.7 C267.4,245.1,268.4,249.2,268.4,249.2 269.7,249.3,271,249.4,272.3,249.5 269.7,247.6,268.9,241.7,268.9,241.7z"/>
    <path fill="#3A747B" d="M281.2,244.7 C280.233,245.2,279.267,245.7,278.3,246.2 280.4,250,283.1,251.1,287,250.5 285.067,248.567,283.133,246.633,281.2,244.7z"/>
    <path fill="#F4969C" d="M261,71.5 C260.467,69.433,259.933,67.367,259.4,65.3 264,62.5,266.6,63.3,269.9,65.1 271.7,65.8,273.5,69.9,273.5,69.9 269.9,63.5,262.2,66.5,262.2,66.5 261.8,68.167,261.4,69.833,261,71.5z"/>
    <path fill="#FCD6C5" d="M246,47.2 C248.9,50.4,248.7,56.6,246.3,57.7 248.367,58.867,250.433,60.033,252.5,61.2 252.267,58.133,252.033,55.067,251.8,52 249.867,50.4,247.933,48.8,246,47.2z"/>
    <path fill="#F4969C" d="M247.3,93.3 C251.2,96.6,249.8,99.2,249.8,99.2 248.967,99.633,248.133,100.067,247.3,100.5 249.1,97.6,247.3,93.3,247.3,93.3z"/>
    <path fill="black" d="M233.5,87.4 C238.4,83.5,242.8,88.4,242.8,88.4 242.867,89.833,242.933,91.267,243,92.7 239.7,86.8,233.5,87.4,233.5,87.4z"/>
    <path fill="#623F98" d="M294.8,64.8 C285.6,59.7,277.9,69.9,278.6,76.3 279.3,76.9,280,77.5,280.7,78.1 282.333,77.333,283.967,76.567,285.6,75.8 284.2,68.9,289.4,63.8,294.8,64.8z"/>
    <path fill="#FFF100" d="M298.1,75.8 C303,68.1,318.3,46,301.4,77.6 300.3,77,299.2,76.4,298.1,75.8z"/>
    <path fill="#009BCF" d="M301.4,77.6 C299.1,75.133,296.8,72.667,294.5,70.2 293.5,71.2,292.5,72.2,291.5,73.2 294.8,74.667,298.1,76.133,301.4,77.6z"/>
    <path fill="black" d="M279.6,88.9 C280.733,104.033,281.867,119.167,283,134.3 282.3,134.633,281.6,134.967,280.9,135.3 280.467,119.833,280.033,104.367,279.6,88.9z"/>
    <path fill="#F4969C" d="M269.9,108.2 C266.8,103,267.9,97.1,269.4,91.1 268.1,95.9,269.2,106.8,272.7,108.3 271.767,108.267,270.833,108.233,269.9,108.2z"/>
    <path fill="#006A44" d="M276.6,72 C276.367,73.267,276.133,74.533,275.9,75.8 272.933,75.133,269.967,74.467,267,73.8 268.6,73.567,270.2,73.333,271.8,73.1 270.933,71.733,270.067,70.367,269.2,69 270.8,70.367,272.4,71.733,274,73.1 274.333,71.4,274.667,69.7,275,68 275.533,69.333,276.067,70.667,276.6,72z"/>
    <path fill="#FCD6C5" d="M304.6,102.2 C301,104.8,303.5,106.6,298.7,107.2 300.7,110.6,303.3,107.1,303.3,107.1 303.3,110.4,299.1,113.5,301.2,114.8 303.167,112.167,305.133,109.533,307.1,106.9 306.267,105.333,305.433,103.767,304.6,102.2z"/>
    <path fill="#DE9755" d="M243.2,46.6 C244.3,51.2,242.9,54.3,238.8,54 238.267,53.567,237.733,53.133,237.2,52.7 241.9,52.3,243,50,243.2,46.6z"/>
    <path fill="#DE9755" d="M255.6,33.1 C258.4,35.4,257.7,37.5,256.1,38.5 254.6,39.5,253.3,38.3,253.3,38.3 257.3,36.6,255.6,33.1,255.6,33.1z"/>
    <path fill="#B66812" d="M303.2,125.8 C300.3,120.833,297.4,115.867,294.5,110.9 296.3,115.367,298.1,119.833,299.9,124.3 297.867,124.467,295.833,124.633,293.8,124.8 295.533,125.633,297.267,126.467,299,127.3 298,128.4,297,129.5,296,130.6 298.4,129,300.8,127.4,303.2,125.8z"/>
    <path fill="#128E87" d="M270.9,129.2 C271.9,127.2,271.6,112.5,271.6,112.5 273.4,115.8,273.7,135,273.7,135 273.3,132.2,270.9,129.2,270.9,129.2z"/>
    <path fill="#3A747B" d="M202.8,233.6 C202.4,237,199,238.5,199.9,247.1 200.933,245.533,201.967,243.967,203,242.4 201.5,238,202.8,233.6,202.8,233.6z"/>
    <path fill="#3A747B" d="M201.3,224.1 C203.8,222.7,206,221.6,207.6,223.5 207.467,224.333,207.333,225.167,207.2,226 205.233,225.933,203.267,225.867,201.3,225.8 201.3,225.233,201.3,224.667,201.3,224.1z"/>
    <path fill="black" d="M90.3,129.5 C88.8,124.067,87.3,118.633,85.8,113.2 108.2,102.1,92.7,89.6,92.7,89.6 89,83.6,90.9,80.7,90.6,71.2 90.6,66.7,84.2,63.9,84.2,63.9 93.9,55.6,78.9,57.3,82.4,52.1 83.7,48.8,82.8,46.7,81.1,45.1 83.3,44.6,84.7,43.7,85,42.4 85.7,40,82.4,36.8,77,34.2 77.5,29.7,74.7,25.4,70.2,24.2 65.8,23,61.3,25.2,59.4,29.2 52.9,28.6,48,29.7,47.3,32.2 46.7,34.6,49.7,37.6,54.8,40.2 54.367,40.8,53.933,41.4,53.5,42 54,42.9,54.9,43.3,54.9,43.3 55,44.1,54.8,44.3,54.8,44.3 54.8,45.1,55.5,45.3,55.9,45.5 55.4,45.9,55.4,46.8,56,46.8 56.067,47.1,56.133,47.4,56.2,47.7 55.5,49.8,55.4,50.8,58.4,50.5 58.067,51.6,57.733,52.7,57.4,53.8 50.5,44.5,45.6,50.2,44.8,47.1 43.1,38.3,35,42,34,36.4 33,30.8,13.1,18.7,13.1,18.7 12,15.233,10.9,11.767,9.8,8.3 7.533,5.533,5.267,2.767,3,0 2.2,0.6,2.8,2.2,2.8,2.2 3.733,4.233,4.667,6.267,5.6,8.3 4.433,7.9,3.267,7.5,2.1,7.1 1.4,7.933,0.7,8.767,0,9.6 -0.4,10.1,1.2,10.8,0.6,11.9 0.2,12.7,0.5,13.9,1.8,14 4.1,14.2,2.2,17.3,4,17.3 4.267,17.2,4.533,17.1,4.8,17 4.3,21,8.3,22,10.8,25.8 10.5,34.7,16.6,34.6,17.5,39.4 26.2,49.333,34.9,59.267,43.6,69.2 38.7,89.2,46.8,87.1,44.8,95.3 40.6,109.1,35.2,119.6,32,125.3 34.367,126.933,36.733,128.567,39.1,130.2 40.233,142.4,41.367,154.6,42.5,166.8 42.7,169.9,45.2,169,45.8,178.9 47.8,195.333,49.8,211.767,51.8,228.2 52.2,232.6,45.1,239.4,42.9,242.7 37.3,243.7,35.9,246.7,37.3,247.7 40.6,247.7,43.9,247.7,47.2,247.7 49.8,247.8,51.3,246,54.5,243.4 54.533,244.7,54.567,246,54.6,247.3 55,252.2,53.5,256.7,56.3,256.3 63.3,255.3,64.3,245.5,64.3,245.5 64.7,243.8,65.9,245.4,66.2,243.6 66.5,241.333,66.8,239.067,67.1,236.8 68.5,230.9,60.8,228.8,63.3,218.4 65,212,66.1,206.6,66.7,202.1 83.8,197.9,84.4,171.9,118.4,177 110.3,138.7,101.9,139.8,90.3,129.5z"/>
    <path fill="#00B8B0" d="M51.9,205.2 C50.3,192.2,48.7,178.5,48.7,178.5 48.7,178.567,48.7,178.633,48.7,178.7 48.3,171.7,46.8,169.3,45.9,167.8 45.5,167.1,45.4,167,45.4,166.6 45.4,166.5,42.1,134.1,42.1,134.1 45.9,137.2,49.1,137.6,49.1,137.6 50.1,150.8,65.1,201.9,65.1,201.9 59.8,206.3,51.9,205.2,51.9,205.2z"/>
    <path fill="#00B8B0" d="M59.7,238.2 C60.767,238.433,61.833,238.667,62.9,238.9 61.267,242.133,59.633,245.367,58,248.6 57.067,245,56.133,241.4,55.2,237.8 56.7,237.933,58.2,238.067,59.7,238.2z"/>
    <path fill="#FBCDBB" d="M55.2,237.9 C52.7,238.967,50.2,240.033,47.7,241.1 51,237.2,55,232.3,54.6,227.9 54.6,227.9,53.6,219.4,52.4,209.4 54.9,209.4,58.7,206.3,58.7,206.3 55.5,222.3,62.7,226,59.7,238.2 58.2,238.1,56.7,238,55.2,237.9z"/>
    <path fill="#A45DA4" d="M69.6,26.7 C66.6,25.9,63.4,27.4,62,30.2 61.733,30.8,61.467,31.4,61.2,32 60.567,31.933,59.933,31.867,59.3,31.8 53.4,31.2,50.5,32.3,50.1,32.9 50.1,32.9,50.1,32.9,50.1,32.8 49.8,34.8,60,41.2,68.4,41.9 63.9,39.7,62.8,34.2,62.8,34.2 66.7,36.3,73.4,35.4,73.4,35.4 66.8,35.3,64.7,29.2,69.6,26.7z"/>
    <path fill="#00B8B0" d="M35.5,124.3 C39.1,117.7,43.3,109.6,47.4,96 47.4,95.967,47.4,95.933,47.4,95.9 47.4,95.867,47.4,95.833,47.4,95.8 48.4,91.7,47.3,89.3,46.3,87.2 45,84.4,43.4,81,46.2,69.8 47,67.1,47.8,64.4,48.6,61.7 40.5,54.867,32.4,48.033,24.3,41.2 24.867,38.733,25.433,36.267,26,33.8 24.567,34.3,23.133,34.8,21.7,35.3 19.333,33,16.967,30.7,14.6,28.4 14.233,26.4,13.867,24.4,13.5,22.4 22.7,28.3,30.7,34.9,31.1,37 31.9,41.1,35.1,42.2,37.3,43 39.7,43.8,41.3,44.4,42,47.7 42,47.733,42,47.767,42,47.8 42,47.833,42,47.867,42,47.9 42.9,51.2,45.9,51.1,47.2,51 49.1,50.9,51.5,50.8,55,55.5 56.033,55.733,57.067,55.967,58.1,56.2 50.5,68,48.7,81.6,51.1,88.5 51.9,92.333,52.7,96.167,53.5,100 52.333,99.9,51.167,99.8,50,99.7 49.767,110.6,49.533,121.5,49.3,132.4 46.3,130.9,43.3,129.4,40.3,127.9 38.7,126.7,37.1,125.5,35.5,124.3z"/>
    <path fill="#00B8B0" d="M73.6,144.8 C73.3,153.7,62.2,169.7,65.3,175.3 68.8,181.2,69.5,192.7,67.7,201.4 77.4,169.5,61.1,180.6,71.2,162.6 76.8,151.7,73.6,144.8,73.6,144.8z"/>
    <path fill="black" d="M70.9,62.4 C81,45,95.5,60.2,103,53.4 111.2,46.1,118.8,48.4,123.3,51.2 103.8,47.1,107.7,72.8,94.8,67.3 83.4,61.7,78.5,58.6,70.9,62.4z"/>
    <path fill="#A45DA4" d="M73.5,68.1 C67.667,73.767,61.833,79.433,56,85.1 55.167,101.7,54.333,118.3,53.5,134.9 64.867,134.033,76.233,133.167,87.6,132.3 86,126.767,84.4,121.233,82.8,115.7 74.967,115.867,67.133,116.033,59.3,116.2 59.467,106,59.633,95.8,59.8,85.6 64.367,79.767,68.933,73.933,73.5,68.1z"/>
    <path fill="#FBCDBB" d="M59.8,53.7 C60.133,55.2,60.467,56.7,60.8,58.2 58.133,63.767,55.467,69.333,52.8,74.9 57.8,70.8,62.8,66.7,67.8,62.6 66.6,61.967,65.4,61.333,64.2,60.7 62.433,57.733,60.667,54.767,58.9,51.8z"/>
    <path fill="black" d="M54.9,118.8 C60.567,120.5,66.233,122.2,71.9,123.9 75.733,122,79.567,120.1,83.4,118.2 79.667,121.967,75.933,125.733,72.2,129.5 66.433,125.933,60.667,122.367,54.9,118.8z"/>
    <path fill="#FBCDBB" d="M53,84.5 C56.3,82,61.7,84.2,61.7,84.2 62.8,86.933,63.9,89.667,65,92.4 66.633,92.933,68.267,93.467,69.9,94 71.3,99.5,68.5,100.9,68.5,100.9 65.867,99.067,63.233,97.233,60.6,95.4 57.9,97.9,55.1,93.5,55.1,93.5 54.467,93.867,53.833,94.233,53.2,94.6 53.133,92.233,53.067,89.867,53,87.5 53.533,87.133,54.067,86.767,54.6,86.4 54.067,85.767,53.533,85.133,53,84.5z"/>
    <path fill="#00B8B0" d="M81.6,65.6 C71.5,70,72.8,83.8,75,90.9 76.733,89.667,78.467,88.433,80.2,87.2 79.3,88.967,78.4,90.733,77.5,92.5 78.8,91.733,80.1,90.967,81.4,90.2 82.1,91.133,82.8,92.067,83.5,93 81.8,94.3,72,92.9,72,92.9 76.9,99.3,70.8,104.5,70.8,104.5 74.067,105.333,77.333,106.167,80.6,107 87.2,107.7,90.4,97.2,85.8,95.4 86.8,93.667,87.8,91.933,88.8,90.2 87.567,90.433,86.333,90.667,85.1,90.9 84.933,87.7,84.767,84.5,84.6,81.3 83.767,82.2,82.933,83.1,82.1,84 78.2,72.9,81.6,65.6,81.6,65.6z"/>
    <path fill="#FBCDBB" d="M57.4,41.5 C56.3,43.3,60.9,46,59.3,49.5 61.5,49.6,63.7,48.9,64.5,46.1 61.7,45.1,58.6,42.6,57.4,41.5z"/>
    <path fill="#FFDB87" d="M76,45.8 C73,46.4,72.4,46,70.5,45.8 71.9,47.7,73.9,52.9,65.8,53.7 65.7,53.7,76.4,56,76,45.8z"/>
    <path fill="#FFDB87" d="M69.6,47.5 C71.4,50.4,69.1,51.4,67.8,51.7 67.4,51.233,67,50.767,66.6,50.3 69.3,50.7,69.8,48.8,69.6,47.5z"/>
    <path fill="#00B8B0" d="M52.6,77.4 C58.4,72.867,64.2,68.333,70,63.8 71,69,64.2,74.1,52.6,77.4z"/>
    <path fill="#A45DA4" d="M86.4,56.3 C92.8,56.1,98.5,62,102.6,56.3 102.433,57.433,102.267,58.567,102.1,59.7 95.9,64.5,94.3,57,86.4,56.3z"/>
    <path fill="#A45DA4" d="M81.1,56.2 C78.1,59.2,72.1,60.3,68.8,58.3 69.5,62.1,76,64.7,80.8,62.6 80.1,61.6,79.4,60.6,78.7,59.6 80.5,58.8,81.1,56.2,81.1,56.2z"/>
    <path fill="black" d="M52.9,60.1 C51.1,64.4,49.6,72.1,49.6,72.1 48.6,67.2,49.9,61.6,49.9,61.6 50.9,61.1,51.9,60.6,52.9,60.1z"/>
    <path fill="black" d="M32.3,46.7 C36.7,47.4,40.5,46.2,40.5,46.2 40.8,47.3,41.3,49.5,41.3,49.5 35.7,50,32.3,46.7,32.3,46.7z"/>
    <path fill="#00B8B0" d="M35.9,54.6 C39.067,57.333,42.233,60.067,45.4,62.8 44.967,63.633,44.533,64.467,44.1,65.3 41.367,61.733,38.633,58.167,35.9,54.6z"/>
    <path fill="#A45DA4" d="M82.8,115.2 C81.667,114.767,80.533,114.333,79.4,113.9 79.3,111.7,79.2,109.5,79.1,107.3 79.8,107.967,80.5,108.633,81.2,109.3 81.733,111.267,82.267,113.233,82.8,115.2z"/>
    <path fill="black" d="M48.7,100.2 C48.367,106.267,48.033,112.333,47.7,118.4 47.167,115.4,46.633,112.4,46.1,109.4 46.967,106.333,47.833,103.267,48.7,100.2z"/>
    <path fill="#00B8B0" d="M84.2,79.2 C84.867,78.433,85.533,77.667,86.2,76.9 84.9,75.6,83.2,70.3,83.2,70.3 82.6,72.1,84.2,79.2,84.2,79.2z"/>
    <path fill="#00B8B0" d="M85.7,139.7 C103.1,147.9,105,172.5,105,172.5 98.4,171.8,91.2,174.8,88.6,179.4 92.6,165.9,97.5,155.7,85.7,139.7z"/>
    <path fill="#00B8B0" d="M84.6,174 C88.9,168.3,89.8,157.4,88.1,149.6 88.2,154.2,81,170.3,73.1,180.9 80.4,176,79.7,176.6,84.6,174z"/>
    <path fill="#00B8B0" d="M54.6,138.4 C54.6,138.4,55.6,162.5,61,176.5 58.5,160.3,61.7,139.9,61.7,139.9 61.9,144.8,64.7,154.4,64.7,154.4 64.2,147.5,67.2,137.4,67.2,137.4 63.2,138.4,54.6,138.4,54.6,138.4z"/>
    <path fill="black" d="M49.9,169.3 C52.433,174.3,54.967,179.3,57.5,184.3 55.467,181.767,53.433,179.233,51.4,176.7 50.9,174.233,50.4,171.767,49.9,169.3z"/>
    <path fill="#00B8B0" d="M91.2,141.3 C101.5,141.1,107.9,150.6,107.9,150.6 107.167,151.667,106.433,152.733,105.7,153.8 103,144.3,91.2,141.3,91.2,141.3z"/>
    <path fill="#FBCDBB" d="M3.4,9.6 C6.2,11.8,5,17.5,10,19 9.333,16.2,8.667,13.4,8,10.6 7.4,10.833,6.8,11.067,6.2,11.3 5.267,10.733,4.333,10.167,3.4,9.6z"/>
    <path fill="#00B8B0" d="M23.2,36.7 C22.767,37.833,22.333,38.967,21.9,40.1 21.267,39.733,20.633,39.367,20,39 21.067,38.233,22.133,37.467,23.2,36.7z"/>
    <path fill="black" d="M60.8,84.7 C60.467,85.3,60.133,85.9,59.8,86.5 58.967,86.767,58.133,87.033,57.3,87.3 57.067,88.767,56.833,90.233,56.6,91.7 58.2,93.8,59.6,94.3,61.7,94.2 62.067,93.767,62.433,93.333,62.8,92.9 62.133,90.167,61.467,87.433,60.8,84.7z"/>
    <path fill="black" d="M389.9,212.5 C389.9,191.8,389.9,171.1,389.9,150.4 381.867,150.4,373.833,150.4,365.8,150.4 365.8,171.1,365.8,191.8,365.8,212.5 373.833,212.5,381.867,212.5,389.9,212.5z"/>
    <path fill="#91684B" d="M368.3,152.8 C368.3,171.867,368.3,190.933,368.3,210 373.433,210,378.567,210,383.7,210 383.7,190.933,383.7,171.867,383.7,152.8 378.567,152.8,373.433,152.8,368.3,152.8z"/>
    <path fill="black" d="M290.1,242 C289.7,245.633,289.3,249.267,288.9,252.9 291.5,253.333,294.1,253.767,296.7,254.2 301.4,258,308.6,255.6,308.6,255.6 310.1,251.7,306.8,253.3,304.1,249 302.733,246.933,301.367,244.867,300,242.8 298.2,240.1,302.9,228.9,308.5,224.5 312.1,221.9,313,222,315.4,223.6 317.6,224.3,321.3,222.5,321.3,222.5 317.3,227.7,318.5,231.8,319.7,236.3 322.5,245.1,319.3,256.7,319.3,256.7 322.167,256.567,325.033,256.433,327.9,256.3 332.2,257.7,342.5,256.5,342.5,256.5 342.533,256.133,342.567,255.767,342.6,255.4 347.9,255.4,353.2,255.4,358.5,255.4 358.5,251.8,359.3,251.4,354.1,249.4 348.9,247.4,343.1,234.5,343.1,234.5 344.7,235.667,346.3,236.833,347.9,238 348.333,237.4,348.767,236.8,349.2,236.2 357.1,240.3,351.6,244,368.5,247.1 370.8,242.6,369.1,242.9,366.5,239.2 365.1,236.733,363.7,234.267,362.3,231.8 361.833,229.867,361.367,227.933,360.9,226 362.333,225.3,363.767,224.6,365.2,223.9 370.633,209.933,376.067,195.967,381.5,182 381.8,180.5,382.1,179,382.4,177.5 382.4,177.5,374.8,144.6,368.2,137.8 364.3,135,368.1,132.7,365.9,129.3 364.2,126.633,362.5,123.967,360.8,121.3 360.9,120.233,361,119.167,361.1,118.1 366,117.6,361.5,110.3,364.1,105.2 366.8,99.8,361,93.9,362.8,89.3 365.1,83.3,365.1,73.2,359.3,67.9 358,65.667,356.7,63.433,355.4,61.2 354.533,60.6,353.667,60,352.8,59.4 352.833,58.2,352.867,57,352.9,55.8 356.9,56.6,358.2,54.7,357.3,52.1 357.3,52.1,361.5,46.1,359.1,41.9 359.5,41.267,359.9,40.633,360.3,40 360.433,37.833,360.567,35.667,360.7,33.5 360.967,32.5,361.233,31.5,361.5,30.5 356,25.6,335.5,22.8,337.1,39.8 337.4,42.233,337.7,44.667,338,47.1 336.1,59.6,326.8,54.2,329.2,60 324.3,63.4,314.5,65,315.1,86 320.4,96.9,306.1,91.5,320,116.5 309.9,122.7,313.7,134.3,316.5,137.1 318.5,138.9,319.9,140.7,318,141.7 315.767,142.767,313.533,143.833,311.3,144.9 306.2,147.9,306.8,156.4,302.5,159.1 296.1,164,304.5,173.7,304.5,173.7 300.5,185.1,299,188.5,300.2,193.8 301,197.3,298.9,202.2,298.9,202.2 296.567,206.933,294.233,211.667,291.9,216.4 293.233,217.633,294.567,218.867,295.9,220.1 292.3,224.6,293.5,231.4,293.5,231.4 293.533,232.833,293.567,234.267,293.6,235.7 293.1,235.767,292.6,235.833,292.1,235.9 291.9,237.133,291.7,238.367,291.5,239.6 291.033,240.4,290.567,241.2,290.1,242z"/>
    <path fill="#B281B9" d="M338.2,53.6 C337.9,56.3,332.3,58.8,332.3,58.8 330.4,59.2,332.4,61.4,332.4,61.4 325.9,64.4,316.9,66.8,317.4,86.5 322.3,95.1,308.7,94.1,321.9,115.8 324.4,114,329.8,114.2,333.6,115.8 335.2,106.4,330.2,108.9,331.4,103.5 333.6,100.4,336.7,95.9,335.5,91.1 335,93.6,330.3,95.7,330.3,95.7 339.7,83.4,336,72.7,332.3,67.4 334.4,65.533,336.5,63.667,338.6,61.8 340.9,64.6,343.2,67.4,345.5,70.2 346.6,68.2,347.7,66.2,348.8,64.2 345.267,60.667,341.733,57.133,338.2,53.6z"/>
    <path fill="#B281B9" d="M347.2,84.3 C344.1,88.1,341,91.9,337.9,95.7 339.8,92.3,340.8,88.6,338.9,86.6 341.5,82.9,343.1,76,335.4,68.5 336.5,65.833,337.6,63.167,338.7,60.5 340.433,64.8,342.167,69.1,343.9,73.4 346.267,71.933,348.633,70.467,351,69 359.4,77.6,346.4,93.9,353,99.2 354.167,98.7,355.333,98.2,356.5,97.7 358,102.7,346.3,114,346.3,114 342.6,118,343.7,111.3,345.6,106.5 347.5,101.7,348.1,96.7,348.1,96.7 345.133,98.867,342.167,101.033,339.2,103.2 341.867,96.9,344.533,90.6,347.2,84.3z"/>
    <path fill="#FCDCCE" d="M354.6,31.3 C354.533,33.933,354.467,36.567,354.4,39.2 353.133,38.967,351.867,38.733,350.6,38.5 349.6,39.333,348.6,40.167,347.6,41 352.5,44.4,344.7,50.2,352.5,55.6 350.867,55.467,349.233,55.333,347.6,55.2 345.8,53.6,344,52,342.2,50.4 342.233,48.867,342.267,47.333,342.3,45.8 341.8,45.567,341.3,45.333,340.8,45.1 338,42.2,339,36.7,342.7,39.4 342.667,38.433,342.633,37.467,342.6,36.5 343.633,36.5,344.667,36.5,345.7,36.5 342.7,33.1,346,29.9,354.6,31.3z"/>
    <path fill="#FCDCCE" d="M354.9,40.8 C355.033,42.667,355.167,44.533,355.3,46.4 355.8,46.4,356.3,46.4,356.8,46.4 356.533,44.533,356.267,42.667,356,40.8 355.633,40.8,355.267,40.8,354.9,40.8z"/>
    <path fill="#EF6188" d="M320,143.5 C314.4,145.8,309.3,146.2,307.7,154.9 307.2,157.8,305.9,159,304.4,160.1 307,160.5,310.5,165.4,310.5,165.4 317.6,161.2,318.5,154.2,315.9,148.5 317.433,147.667,318.967,146.833,320.5,146 322.1,148.6,326.5,148.5,326.5,148.5 326.467,147.767,326.433,147.033,326.4,146.3 322.8,146.9,320,143.5,320,143.5z"/>
    <path fill="#FCDCCE" d="M310.4,178.6 C308.7,181.3,311.3,183.8,312.3,184.1 312.5,185.2,312.7,186.3,312.9,187.4 315,188.6,314.9,185.4,317.7,185.5 318.5,185.6,321.4,187,319.8,183.7 319.2,182.533,318.6,181.367,318,180.2 316.5,177.7,310.4,178.6,310.4,178.6z"/>
    <path fill="#FCDCCE" d="M303.1,162.3 C300.2,165.2,306.6,174.3,309,175.9 309.6,172.3,308.7,166.4,303.1,162.3z"/>
    <path fill="#FCDCCE" d="M326.2,127.7 C329.9,131.9,323.3,136.1,327.6,141.1 321.9,140.6,319.7,136.3,319.4,134.2 322.4,132.7,324.2,130,323.6,127.3 323,124.6,326.2,127.7,326.2,127.7z"/>
    <path fill="#FCDCCE" d="M336.3,135.5 C335.3,138.5,333.9,140.1,332.6,140.7 332.467,141.667,332.333,142.633,332.2,143.6 335.3,144.1,338.6,148.3,337.3,154.3 339.2,153.367,341.1,152.433,343,151.5 343.633,151.967,344.267,152.433,344.9,152.9 345.6,152.333,346.3,151.767,347,151.2 346.167,148.567,345.333,145.933,344.5,143.3 341.767,140.7,339.033,138.1,336.3,135.5z"/>
    <path fill="#57326E" d="M334.4,116 C339.2,117.8,339.9,125.3,337.6,128.3 335.3,130.8,337.8,131.3,336.8,134.5 340.8,136.633,344.8,138.767,348.8,140.9 347.167,137.133,345.533,133.367,343.9,129.6 346.167,131.233,348.433,132.867,350.7,134.5 349.833,131.2,348.967,127.9,348.1,124.6 349.833,125.433,351.567,126.267,353.3,127.1 353.133,125.5,352.967,123.9,352.8,122.3 348.933,122.167,345.067,122.033,341.2,121.9 341.1,120.733,341,119.567,340.9,118.4 344.8,118.567,348.7,118.733,352.6,118.9 352.567,117.967,352.533,117.033,352.5,116.1 346.467,116.067,340.433,116.033,334.4,116z"/>
    <path fill="#EF6188" d="M302.7,196.5 C303.1,199.6,301.3,202.2,301.3,202.2 299.167,206.933,297.033,211.667,294.9,216.4 297.8,220.5,303.8,222.7,303.8,222.7 305.267,214.2,306.733,205.7,308.2,197.2 306.367,196.967,304.533,196.733,302.7,196.5z"/>
    <path fill="#FFFFFF" d="M352.7,166.3 C351.933,172.4,351.167,178.5,350.4,184.6 341.5,197.5,341.8,223,341.8,223 342.833,221.6,343.867,220.2,344.9,218.8 344.433,218.067,343.967,217.333,343.5,216.6 346.9,209.567,350.3,202.533,353.7,195.5 353.567,194.767,353.433,194.033,353.3,193.3 354.1,189.2,359.7,185,359.7,185 359.1,184,358.5,183,357.9,182 358.733,181.267,359.567,180.533,360.4,179.8 357.833,175.3,355.267,170.8,352.7,166.3z"/>
    <path fill="#57326E" d="M353.8,128.5 C353.9,130.6,354,132.7,354.1,134.8 355,136.2,355.9,137.6,356.8,139 355.8,144.8,354.8,150.6,353.8,156.4 359.233,159.067,364.667,161.733,370.1,164.4 366.8,164.633,363.5,164.867,360.2,165.1 364.6,168.333,369,171.567,373.4,174.8 371.133,175.267,368.867,175.733,366.6,176.2 368.9,178.667,371.2,181.133,373.5,183.6 375.4,181.933,377.3,180.267,379.2,178.6 377.3,170.3,371.7,148.4,366.9,141.7 366.167,141.467,365.433,141.233,364.7,141 362.833,142.8,360.967,144.6,359.1,146.4 360.567,143.167,362.033,139.933,363.5,136.7 364.7,133.8,361.6,129.1,359.3,125 359.133,126.667,358.967,128.333,358.8,130 357.133,129.5,355.467,129,353.8,128.5z"/>
    <path fill="#EF6188" d="M302.5,194.3 C311.4,197,321.2,197,324.7,193.9 325.8,192.9,325.5,190.8,325.5,190.8 317.5,196.4,302.5,194.3,302.5,194.3z"/>
    <path fill="#EF6188" d="M308.9,192.6 C309,185.8,304.1,187.2,306,182.3 307,180,304.6,179.7,305.6,175.8 303.8,181.7,300.7,187.9,301.9,192.6 303.9,193.3,307.2,192.9,308.9,192.6z"/>
    <path fill="#57326E" d="M371.6,183.1 C365.2,183.8,357.1,189.4,356.4,194.2 356.433,194.733,356.467,195.267,356.5,195.8 353.333,202.733,350.167,209.667,347,216.6 349.433,218.333,351.867,220.067,354.3,221.8 360.067,208.9,365.833,196,371.6,183.1z"/>
    <path fill="#6D6E70" d="M343.9,224.6 C347.667,228.2,351.433,231.8,355.2,235.4 356.533,234.367,357.867,233.333,359.2,232.3 358.867,230.633,358.533,228.967,358.2,227.3 354.433,225.167,350.667,223.033,346.9,220.9 345.9,222.133,344.9,223.367,343.9,224.6z"/>
    <path fill="#EF6188" d="M327.4,194.3 C328.767,201.8,330.133,209.3,331.5,216.8 329.6,219.2,324.8,219.9,324.8,219.9 324.633,212.067,324.467,204.233,324.3,196.4 325.033,197.067,325.767,197.733,326.5,198.4 326.8,197.033,327.1,195.667,327.4,194.3z"/>
    <path fill="#D25579" d="M322.3,253.1 C324.033,252.933,325.767,252.767,327.5,252.6 328.6,253.133,329.7,253.667,330.8,254.2 334.267,254.333,337.733,254.467,341.2,254.6 340.367,253.633,339.533,252.667,338.7,251.7 337.4,251.633,336.1,251.567,334.8,251.5 332.767,249.1,330.733,246.7,328.7,244.3 328.6,247.1,325.5,248.1,323,244.7 323.8,248.2,322.3,253.1,322.3,253.1z"/>
    <path fill="#57326E" d="M340.8,235.8 C339.667,234.433,338.533,233.067,337.4,231.7 337.2,233.867,337,236.033,336.8,238.2 335.933,237.567,335.067,236.933,334.2,236.3 335.067,233.467,335.933,230.633,336.8,227.8 335.233,230.133,333.667,232.467,332.1,234.8 332.667,229.2,333.233,223.6,333.8,218 333.367,218.533,332.933,219.067,332.5,219.6 333.2,224.4,327.9,227.2,329.9,241.7 330.3,241.9,330.7,242.1,331.1,242.3 333.067,244.633,335.033,246.967,337,249.3 337.933,249.333,338.867,249.367,339.8,249.4 339.6,246.033,339.4,242.667,339.2,239.3 339.967,239.233,340.733,239.167,341.5,239.1 341.267,238,341.033,236.9,340.8,235.8z"/>
    <path fill="#D25579" d="M292.8,242.3 C292.467,244.967,292.133,247.633,291.8,250.3 297.5,250,299.7,252.9,301.4,251.8 299.6,248.767,297.8,245.733,296,242.7 293.9,243.9,292.8,242.3,292.8,242.3z"/>
    <path fill="#FCDCCE" d="M338.2,160.9 C338.2,160.9,338.2,166.7,334.2,173.6 334.2,173.6,340.4,167.4,340.9,161.5 341,158.2,339.3,157.5,341.2,154.7 340.3,155.3,339.4,155.9,338.5,156.5 337.8,157.6,338.2,160.9,338.2,160.9z"/>
    <path fill="#B281B9" d="M358.7,79.3 C361.7,85.9,357.4,91.4,357.4,91.4 356.867,90.733,356.333,90.067,355.8,89.4 358.7,86.8,358.7,79.3,358.7,79.3z"/>
    <path fill="#57326E" d="M341.7,170.1 C341.467,173.8,341.233,177.5,341,181.2 335.8,185.1,336.1,207.8,336.1,207.8 334.8,204.2,333.5,200.6,332.2,197 333.3,195.267,334.4,193.533,335.5,191.8 334.2,191.267,332.9,190.733,331.6,190.2 333.667,187.8,335.733,185.4,337.8,183 336.8,182.133,335.8,181.267,334.8,180.4 337.1,176.967,339.4,173.533,341.7,170.1z"/>
    <path fill="#B281B9" d="M359.4,106.7 C360.6,110,361.9,114.6,358.8,116.5 358.033,116.267,357.267,116.033,356.5,115.8 359.4,113.2,359.4,106.7,359.4,106.7z"/>
    <path fill="black" d="M331.3,81.8 C332.2,86.8,323.6,90,323.6,90 320.1,92.8,326.6,92.4,326.6,92.4 334.4,88.9,331.3,81.8,331.3,81.8z"/>
    <path fill="#B281B9" d="M351.8,62.5 C352.333,64.733,352.867,66.967,353.4,69.2 353.767,67.833,354.133,66.467,354.5,65.1 353.6,64.233,352.7,63.367,351.8,62.5z"/>
    <path fill="#FCDCCE" d="M342.7,46.6 C341.7,47.567,340.7,48.533,339.7,49.5 339.467,50.267,339.233,51.033,339,51.8 340.8,53.667,342.6,55.533,344.4,57.4 344.033,54.5,343.667,51.6,343.3,48.7 343.1,48,342.9,47.3,342.7,46.6z"/>
    <path fill="black" d="M332.9,96.7 C330.2,102.6,327,104.4,321.6,105.8 317.2,106,317.5,102.5,320.4,101.9 330.3,101.5,332.9,96.7,332.9,96.7z"/>
    <path fill="#B281B9" d="M334.7,105.7 C338.5,108.4,335.9,113.2,335.9,113.2 340,109.5,338.5,105.6,336.9,104.1 336.167,104.633,335.433,105.167,334.7,105.7z"/>
    <path fill="#EF6188" d="M326.6,188.9 C325.5,184.5,317.5,172.7,317.5,172.7 319.267,172.933,321.033,173.167,322.8,173.4 327.2,173.7,326.2,164.9,321.6,160 324.467,159.833,327.333,159.667,330.2,159.5 330.1,155.733,330,151.967,329.9,148.2 333,145.1,335.8,151.2,334.9,157.5 334.1,164,328.1,162.9,331,168.6 334.3,173.6,328,171.7,329.9,178.8 332.4,183.9,329.2,187.8,326.6,188.9z"/>
    <path fill="#FCDCCE" d="M332.5,132.4 C334.5,133.5,332,135.4,331.5,134.4 330.6,132.5,332.5,132.4,332.5,132.4z"/>
    <path fill="#EF6188" d="M312.1,167.5 C314.9,165.7,316.9,162.2,317.4,158.4 318.5,161.6,316.8,167.6,313.1,169.7 312.9,168.9,312.1,167.5,312.1,167.5z"/>
    <path fill="#715838" d="M327,117.6 C334.1,116.4,337.3,124.5,333.9,127.2 333.033,127.133,332.167,127.067,331.3,127 335.8,122,330.4,117.6,327,117.6z"/>
    <path fill="#715838" d="M329.7,126.8 C332.8,124.2,331.5,122.5,330.2,120.9 331.3,122.3,330,126.2,328,126.6 328.567,126.667,329.133,126.733,329.7,126.8z"/>
    <path fill="black" d="M342.2,146.4 C342.9,148.033,343.6,149.667,344.3,151.3 343.7,150.933,343.1,150.567,342.5,150.2 342.4,148.933,342.3,147.667,342.2,146.4z"/>
    <path fill="#EF6188" d="M316.8,221.3 C315.933,220.9,315.067,220.5,314.2,220.1 315.133,213.067,316.067,206.033,317,199 318.5,201.7,320,204.4,321.5,207.1 320.3,206.5,319.1,205.9,317.9,205.3 318.633,207.267,319.367,209.233,320.1,211.2 318.833,210.733,317.567,210.267,316.3,209.8 317.033,213.4,317.767,217,318.5,220.6 317.933,220.833,317.367,221.067,316.8,221.3z"/>
    <path fill="#FCDCCE" d="M297.2,222 C293.8,224.3,295.1,232.9,295.1,232.9 295.5,233.067,295.9,233.233,296.3,233.4 296.2,229.2,300.2,224.4,300.2,224.4 298.9,224.5,297.2,222,297.2,222z"/>
    <path fill="black" d="M365.5,191.8 C363.133,192.7,360.767,193.6,358.4,194.5 358.9,195.567,359.4,196.633,359.9,197.7 361.767,195.733,363.633,193.767,365.5,191.8z"/>
    <path fill="black" d="M360.8,157.3 C363.767,158.2,366.733,159.1,369.7,160 370.033,159.333,370.367,158.667,370.7,158 367.4,157.767,364.1,157.533,360.8,157.3z"/>
    <path fill="#6D6E70" d="M361.8,241.7 C363.2,242.6,366.1,243.1,366.1,243.1 365.633,242.567,365.167,242.033,364.7,241.5 363.733,241.567,362.767,241.633,361.8,241.7z"/>
</svg>
